<svg width="9" height="9" viewBox="0 0 9 9" fill="none" xmlns="http://www.w3.org/2000/svg">
<g clip-path="url(#clip0_0_1036)">
<path d="M7.5 3.375H4.125C3.71079 3.375 3.375 3.71079 3.375 4.125V7.5C3.375 7.91421 3.71079 8.25 4.125 8.25H7.5C7.91421 8.25 8.25 7.91421 8.25 7.5V4.125C8.25 3.71079 7.91421 3.375 7.5 3.375Z" stroke="white" stroke-linecap="round" stroke-linejoin="round"/>
<path d="M1.875 5.625H1.5C1.30109 5.625 1.11032 5.54598 0.96967 5.40533C0.829018 5.26468 0.75 5.07391 0.75 4.875V1.5C0.75 1.30109 0.829018 1.11032 0.96967 0.96967C1.11032 0.829018 1.30109 0.75 1.5 0.75H4.875C5.07391 0.75 5.26468 0.829018 5.40533 0.96967C5.54598 1.11032 5.625 1.30109 5.625 1.5V1.875" stroke="white" stroke-linecap="round" stroke-linejoin="round"/>
</g>
<defs>
<clipPath id="clip0_0_1036">
<rect width="9" height="9" fill="white"/>
</clipPath>
</defs>
</svg>
