<svg width="25" height="36" viewBox="0 0 25 36" fill="none" xmlns="http://www.w3.org/2000/svg">
<g clip-path="url(#clip0_104_46)">
<path fill-rule="evenodd" clip-rule="evenodd" d="M0.345703 10.024C0.345703 4.77995 4.4268 0.528809 9.46109 0.528809H15.538C20.5723 0.528809 24.6534 4.77995 24.6534 10.024V12.1011H18.5765V10.024C18.5765 8.27598 17.2161 6.85894 15.538 6.85894H9.46109C7.78299 6.85894 6.42263 8.27598 6.42263 10.024V19.5192H0.345703V10.024Z" fill="#B3A7FF"/>
<path fill-rule="evenodd" clip-rule="evenodd" d="M24.6543 25.9595C24.6543 31.2127 20.5732 35.4712 15.5389 35.4712H9.46199C4.4277 35.4712 0.346605 31.2127 0.346605 25.9595V24.2999H6.42353V25.9595C6.42353 27.7105 7.78389 29.1301 9.46199 29.1301H15.5389C17.217 29.1301 18.5774 27.7105 18.5774 25.9595V17.2404H24.6543V25.9595Z" fill="white"/>
</g>
<defs>
<clipPath id="clip0_104_46">
<rect width="25" height="36" fill="white"/>
</clipPath>
</defs>
</svg>
