<svg width="102" height="110" viewBox="0 0 102 110" fill="none" xmlns="http://www.w3.org/2000/svg">
<g filter="url(#filter0_di_12_2876)">
<path d="M56.2754 22.8208C57.3813 20.7133 59.9839 19.902 62.0914 21.0079C64.1989 22.1137 65.0102 24.7164 63.9043 26.8239L55.3978 43.0354L55.8982 42.0818C57.0041 39.9743 59.6067 39.163 61.7142 40.2689C63.8217 41.3747 64.633 43.9774 63.5271 46.0849L62.5403 47.9656C63.6534 45.8783 66.2445 45.0779 68.3424 46.1788C70.4088 47.263 71.2292 49.7889 70.2168 51.8732C70.1787 51.9515 70.1375 51.9474 70.1672 52.0292C70.2362 52.2186 70.5152 52.3565 70.6863 52.2498C71.9413 51.4675 73.5663 51.3527 74.9704 52.0894C77.0771 53.1949 77.8888 55.7988 76.7833 57.9054L66.7756 76.9777C64.5649 81.1908 59.3567 82.8142 55.1437 80.6035L42.3919 73.9124C38.3448 71.7888 35.3072 68.1444 33.9476 63.7824L31.3601 55.4818C31.1788 54.9001 30.8927 54.3564 30.5159 53.8776L24.5189 46.2573C26.4441 42.6221 29.8746 43.0207 32.7285 44.5182C33.6536 45.0036 34.5151 45.5249 35.4199 46.2544C38.3258 48.5971 42.8185 48.4664 44.5529 45.1612L56.2754 22.8208Z" fill="white"/>
</g>
<defs>
<filter id="filter0_di_12_2876" x="0.518555" y="0.513428" width="100.759" height="109.078" filterUnits="userSpaceOnUse" color-interpolation-filters="sRGB">
<feFlood flood-opacity="0" result="BackgroundImageFix"/>
<feColorMatrix in="SourceAlpha" type="matrix" values="0 0 0 0 0 0 0 0 0 0 0 0 0 0 0 0 0 0 127 0" result="hardAlpha"/>
<feOffset dy="4"/>
<feGaussianBlur stdDeviation="12"/>
<feComposite in2="hardAlpha" operator="out"/>
<feColorMatrix type="matrix" values="0 0 0 0 0 0 0 0 0 0 0 0 0 0 0 0 0 0 0.3 0"/>
<feBlend mode="normal" in2="BackgroundImageFix" result="effect1_dropShadow_12_2876"/>
<feBlend mode="normal" in="SourceGraphic" in2="effect1_dropShadow_12_2876" result="shape"/>
<feColorMatrix in="SourceAlpha" type="matrix" values="0 0 0 0 0 0 0 0 0 0 0 0 0 0 0 0 0 0 127 0" result="hardAlpha"/>
<feOffset dy="-4"/>
<feGaussianBlur stdDeviation="2"/>
<feComposite in2="hardAlpha" operator="arithmetic" k2="-1" k3="1"/>
<feColorMatrix type="matrix" values="0 0 0 0 0 0 0 0 0 0 0 0 0 0 0 0 0 0 0.25 0"/>
<feBlend mode="normal" in2="shape" result="effect2_innerShadow_12_2876"/>
</filter>
</defs>
</svg>
