<svg width="93" height="93" viewBox="0 0 93 93" fill="none" xmlns="http://www.w3.org/2000/svg">
<path d="M0 23.5443C0 10.5411 10.5411 0 23.5443 0H69.4557C82.4589 0 93 10.5411 93 23.5443V69.4557C93 82.4589 82.4589 93 69.4557 93H23.5443C10.5411 93 0 82.4589 0 69.4557V23.5443Z" fill="url(#paint0_linear_0_466)"/>
<path fill-rule="evenodd" clip-rule="evenodd" d="M32.1924 37.1105C32.1924 30.9371 36.9967 25.9326 42.9232 25.9326H50.077C56.0034 25.9326 60.8078 30.9371 60.8078 37.1105V39.5557H53.6539V37.1105C53.6539 35.0527 52.0525 33.3845 50.077 33.3845H42.9232C40.9477 33.3845 39.3462 35.0527 39.3462 37.1105V48.2884H32.1924V37.1105Z" fill="#B3A7FF"/>
<path fill-rule="evenodd" clip-rule="evenodd" d="M60.8076 55.8701C60.8076 62.0542 56.0033 67.0674 50.0768 67.0674H42.923C36.9966 67.0674 32.1922 62.0542 32.1922 55.8701V53.9164H39.3461V55.8701C39.3461 57.9314 40.9475 59.6025 42.923 59.6025H50.0768C52.0523 59.6025 53.6538 57.9314 53.6538 55.8701V45.6058H60.8076V55.8701Z" fill="white"/>
<defs>
<linearGradient id="paint0_linear_0_466" x1="46.5" y1="0" x2="46.5" y2="93" gradientUnits="userSpaceOnUse">
<stop stop-color="#6B51FF"/>
<stop offset="1" stop-color="#9D51FF"/>
</linearGradient>
</defs>
</svg>
