<svg width="98" height="24" viewBox="0 0 98 24" fill="none" xmlns="http://www.w3.org/2000/svg">
<path d="M31.0456 20.7276V11.0567H29.2988V8.55305H31.0456V7.7676C31.0456 6.70396 31.2228 5.7876 31.5772 5.01851C31.9485 4.23305 32.4633 3.6276 33.1215 3.20215C33.7966 2.77669 34.5814 2.56396 35.4759 2.56396C36.0159 2.56396 36.556 2.62942 37.0961 2.76033C37.653 2.89124 38.2015 3.07942 38.7416 3.32487L38.0581 5.80396C37.8049 5.67305 37.5096 5.56669 37.172 5.48487C36.8345 5.38669 36.5138 5.3376 36.21 5.3376C35.6362 5.3376 35.1974 5.53396 34.8936 5.92669C34.5898 6.31942 34.4379 6.89215 34.4379 7.64487V8.55305H37.6783V11.0567H34.4379V20.7276H31.0456Z" fill="#141414"/>
<path d="M45.5586 20.9731C44.4785 20.9731 43.5081 20.8012 42.6473 20.4576C41.7866 20.0976 41.0524 19.6067 40.4449 18.9849C39.8542 18.3631 39.3985 17.6512 39.0778 16.8494C38.7571 16.0476 38.5968 15.2049 38.5968 14.3212C38.5968 13.4212 38.7571 12.5703 39.0778 11.7685C39.3985 10.9667 39.8542 10.2549 40.4449 9.63306C41.0524 9.01124 41.7866 8.52851 42.6473 8.18487C43.5081 7.82487 44.4785 7.64487 45.5586 7.64487C46.6388 7.64487 47.6008 7.82487 48.4446 8.18487C49.3054 8.52851 50.0395 9.01124 50.6471 9.63306C51.2547 10.2549 51.7103 10.9667 52.0141 11.7685C52.3348 12.5703 52.4951 13.4212 52.4951 14.3212C52.4951 15.2049 52.3348 16.0476 52.0141 16.8494C51.7103 17.6512 51.2547 18.3631 50.6471 18.9849C50.0564 19.6067 49.3307 20.0976 48.4699 20.4576C47.6092 20.8012 46.6388 20.9731 45.5586 20.9731ZM42.0904 14.3212C42.0904 15.074 42.2423 15.7449 42.5461 16.334C42.8499 16.9067 43.2633 17.3567 43.7865 17.684C44.3097 18.0112 44.9004 18.1749 45.5586 18.1749C46.2 18.1749 46.7822 18.0112 47.3054 17.684C47.8286 17.3403 48.2421 16.8821 48.5459 16.3094C48.8665 15.7203 49.0269 15.0494 49.0269 14.2967C49.0269 13.5603 48.8665 12.8976 48.5459 12.3085C48.2421 11.7194 47.8286 11.2612 47.3054 10.934C46.7822 10.6067 46.2 10.4431 45.5586 10.4431C44.9004 10.4431 44.3097 10.6149 43.7865 10.9585C43.2633 11.2858 42.8499 11.744 42.5461 12.3331C42.2423 12.9058 42.0904 13.5685 42.0904 14.3212Z" fill="#141414"/>
<path d="M55.5259 2.80908H58.9182V16.6036C58.9182 17.1927 59.0194 17.5936 59.222 17.8064C59.4245 18.0027 59.703 18.1009 60.0574 18.1009C60.3274 18.1009 60.6059 18.0682 60.8928 18.0027C61.1797 17.9373 61.4329 17.8554 61.6523 17.7573L62.108 20.2609C61.6523 20.4736 61.1207 20.6373 60.5131 20.7518C59.9055 20.8664 59.357 20.9236 58.8676 20.9236C57.8043 20.9236 56.9773 20.6536 56.3866 20.1136C55.8128 19.5573 55.5259 18.7718 55.5259 17.7573V2.80908Z" fill="#6F5DDD"/>
<path d="M63.586 20.7273V7.86544H66.9783V20.7273H63.586ZM63.586 6.07363V2.80908H66.9783V6.07363H63.586Z" fill="#6F5DDD"/>
<path d="M82.3673 20.7273H78.9749V13.5109C78.9749 12.48 78.7893 11.7273 78.418 11.2527C78.0467 10.7782 77.532 10.5409 76.8737 10.5409C76.4181 10.5409 75.9539 10.6554 75.4814 10.8845C75.0257 11.1136 74.6122 11.4327 74.2409 11.8418C73.8696 12.2345 73.5996 12.6927 73.4308 13.2164V20.7273H70.0385V7.86544H73.1017V10.2464C73.4392 9.68999 73.8696 9.22363 74.3928 8.84726C74.916 8.45454 75.5151 8.15999 76.1902 7.96363C76.8822 7.7509 77.6079 7.64454 78.3674 7.64454C79.1944 7.64454 79.8694 7.79181 80.3926 8.08635C80.9327 8.36454 81.3377 8.74908 81.6078 9.23999C81.8947 9.71454 82.0888 10.2545 82.19 10.86C82.3082 11.4654 82.3673 12.0791 82.3673 12.7009V20.7273Z" fill="#6F5DDD"/>
<path d="M94.38 20.7273L90.5066 15.18L88.7092 16.8982V20.7273H85.3169V2.80908H88.7092V13.6582L94.0509 7.88999H97.6457L92.7091 13.3391L98.0001 20.7273H94.38Z" fill="#6F5DDD"/>
<path fill-rule="evenodd" clip-rule="evenodd" d="M0 6.54545C0 2.9305 3.02246 0 6.75085 0H11.2514C14.9798 0 18.0023 2.9305 18.0023 6.54545V7.97727H13.5017V6.54545C13.5017 5.34047 12.4942 4.36364 11.2514 4.36364H6.75085C5.50806 4.36364 4.50057 5.34047 4.50057 6.54545V13.0909H0V6.54545Z" fill="#6F5DDD"/>
<path fill-rule="evenodd" clip-rule="evenodd" d="M18.0024 17.4545C18.0024 21.0695 14.98 24 11.2516 24H6.75102C3.02262 24 0.000162125 21.0695 0.000162125 17.4545V16.3125H4.50073V17.4545C4.50073 18.6595 5.50822 19.6364 6.75102 19.6364H11.2516C12.4944 19.6364 13.5019 18.6595 13.5019 17.4545V11.4545H18.0024V17.4545Z" fill="#141414"/>
</svg>
