<svg width="14" height="18" viewBox="0 0 14 18" fill="none" xmlns="http://www.w3.org/2000/svg">
<path fill-rule="evenodd" clip-rule="evenodd" d="M0 4.90909C0 2.19788 2.26024 0 5.04838 0H8.41397C11.2021 0 13.4623 2.19787 13.4623 4.90909V5.98295H10.0968V4.90909C10.0968 4.00535 9.34335 3.27273 8.41397 3.27273H5.04838C4.119 3.27273 3.36559 4.00535 3.36559 4.90909V9.81818H0V4.90909Z" fill="#42339D"/>
<path fill-rule="evenodd" clip-rule="evenodd" d="M13.4624 13.0909C13.4624 15.8021 11.2022 18 8.41402 18H5.04844C2.26029 18 5.62668e-05 15.8021 5.62668e-05 13.0909V12.2344H3.36564V13.0909C3.36564 13.9946 4.11905 14.7273 5.04844 14.7273H8.41402C9.3434 14.7273 10.0968 13.9946 10.0968 13.0909V8.59091H13.4624V13.0909Z" fill="#D5D5D5"/>
</svg>
