<svg width="21" height="20" viewBox="0 0 21 20" fill="none" xmlns="http://www.w3.org/2000/svg">
<g clip-path="url(#clip0_0_48)">
<path d="M17.5282 2.90436C15.6494 1.03256 13.15 0.00106812 10.4899 0C7.83582 0 5.33246 1.03058 3.44128 2.90192C1.54675 4.77646 0.502441 7.26761 0.5 9.90738V9.91043V9.91226C0.500305 11.51 0.920074 13.1218 1.71689 14.593L0.527313 20L5.99652 18.756C7.38171 19.454 8.92728 19.8221 10.4861 19.8227H10.4901C13.1437 19.8227 15.6471 18.792 17.5386 16.9205C19.4348 15.0444 20.4796 12.5565 20.4808 9.91501C20.4815 7.29218 19.4331 4.8024 17.5282 2.90436ZM10.4899 18.2617H10.4864C9.08673 18.2611 7.69986 17.9097 6.47595 17.2452L6.21732 17.1048L2.58054 17.932L3.37048 14.3419L3.2182 14.0793C2.46106 12.7736 2.06097 11.3322 2.06097 9.91058C2.06387 5.30899 5.8447 1.56097 10.4896 1.56097C12.7336 1.56189 14.842 2.43179 16.4265 4.01016C18.0349 5.61295 18.9204 7.70981 18.9196 9.91455C18.9178 14.5172 15.1362 18.2617 10.4899 18.2617Z" fill="#C9BAE9"/>
<path d="M7.77139 5.5415H7.33347C7.18103 5.5415 6.93353 5.59857 6.72418 5.82639C6.51468 6.05435 5.92432 6.60535 5.92432 7.72595C5.92432 8.84656 6.74326 9.92932 6.85739 10.0815C6.97168 10.2334 8.4382 12.6065 10.7609 13.5194C12.6913 14.2781 13.0842 14.1272 13.5031 14.0892C13.9221 14.0513 14.8551 13.5383 15.0456 13.0066C15.236 12.4748 15.236 12.0189 15.1789 11.9236C15.1217 11.8287 14.9693 11.7718 14.7408 11.658C14.5123 11.544 13.3923 10.9837 13.1828 10.9076C12.9733 10.8317 12.821 10.7937 12.6685 11.0219C12.5161 11.2495 12.0674 11.7762 11.934 11.9282C11.8008 12.0804 11.6674 12.0994 11.4388 11.9854C11.2103 11.8712 10.4818 11.6264 9.60886 10.8506C8.92938 10.2469 8.45789 9.4769 8.32452 9.24893C8.19131 9.02112 8.31033 8.89783 8.42493 8.78415C8.52762 8.68222 8.66632 8.54275 8.78061 8.40985C8.89474 8.27679 8.92725 8.18188 9.00354 8.02991C9.07968 7.87793 9.04153 7.74487 8.98447 7.63104C8.92725 7.51706 8.48871 6.39081 8.28546 5.94037H8.28561C8.11441 5.56104 7.9342 5.54822 7.77139 5.5415Z" fill="#C9BAE9"/>
</g>
<defs>
<clipPath id="clip0_0_48">
<rect width="20" height="20" fill="white" transform="translate(0.5)"/>
</clipPath>
</defs>
</svg>
